<svg xmlns="http://www.w3.org/2000/svg" viewBox="0 0 25 31.25" x="0px" y="0px">
  <g data-name="Add Product">
    <path d="M14.92,8.7,11.5,9.84,3.08,7.03,6.5,5.89ZM2,17.78l9,3V10.72l-9-3ZM19.92,7.03,11.5,4.23,8.08,5.36,16.5,8.17ZM19.5,13a4.379,4.379,0,0,1,1.5.26V7.72l-9,3V20.78l3.52-1.17A4.508,4.508,0,0,1,19.5,13ZM23,17.5A3.5,3.5,0,1,1,19.5,14,3.5,3.5,0,0,1,23,17.5Zm-2,0a.5.5,0,0,0-.5-.5H20v-.5a.5.5,0,0,0-1,0V17h-.5a.5.5,0,0,0,0,1H19v.5a.5.5,0,0,0,1,0V18h.5A.5.5,0,0,0,21,17.5Z" fill="#FFFFFF"/>
  </g>
  <text x="0" y="40" fill="#FFFFFF" font-size="5px" font-weight="bold" font-family="'Helvetica Neue', Helvetica, Arial-Unicode, Arial, Sans-serif">Created by The Icon Z</text>
  <text x="0" y="45" fill="#FFFFFF" font-size="5px" font-weight="bold" font-family="'Helvetica Neue', Helvetica, Arial-Unicode, Arial, Sans-serif">from the Noun Project</text>
</svg>
