<svg xmlns="http://www.w3.org/2000/svg" version="1.1" viewBox="-5.0 -10.0 110.0 135.0">
 <path d="m34.43 63.152c-4.0586-0.70312-7.6484-2.7852-10.27-5.7461-2.7734-3.1367-4.457-7.2578-4.457-11.766 0-4.9102 1.9883-9.3516 5.207-12.566 3.2148-3.2148 7.6602-5.207 12.566-5.207 2.875 0 5.5898 0.68359 8 1.8984 1.6719 0.84766 3.1953 1.9453 4.5117 3.2539l0.003907-5.7578c0-0.54688 0.44531-0.99219 0.99219-0.99219h12.824l0.89453-1.6992-6.1523-6.1523-6.7812 3.5703-0.003906-0.003906c-0.28516 0.15234-0.64062 0.15625-0.94531-0.011719-0.94141-0.53125-1.9258-1.0117-2.9531-1.4375-1.0039-0.41797-2.0312-0.77344-3.0664-1.0625-0.32422-0.082031-0.60156-0.32422-0.70703-0.66797l-2.2695-7.3125h-8.6992l-2.2695 7.3125c-0.097657 0.3125-0.34766 0.57031-0.68359 0.66406-1.0469 0.28906-2.0781 0.64844-3.0938 1.0703-1 0.41406-1.9648 0.88281-2.8867 1.4023-0.28906 0.19531-0.67578 0.22656-1.0078 0.050782l-6.7812-3.5703-6.1523 6.1523 3.5703 6.7812h-0.003906c0.15234 0.28516 0.15625 0.64062-0.015625 0.94531-0.53125 0.94141-1.0117 1.9258-1.4375 2.9492-0.41797 1.0078-0.76953 2.0312-1.0625 3.0703-0.082031 0.32422-0.32422 0.60156-0.66797 0.70703l-7.3125 2.2695v8.6992l7.3125 2.2695c0.3125 0.097656 0.57031 0.34375 0.66406 0.68359 0.28906 1.0469 0.64844 2.0781 1.0664 3.0938 0.41797 1.0039 0.88672 1.9688 1.4023 2.8867 0.19531 0.29297 0.22266 0.67578 0.050781 1.0078l-3.5703 6.7812 6.1523 6.1484 6.7812-3.5703v0.003906c0.28516-0.15234 0.64453-0.15625 0.94531 0.011719 0.94141 0.53125 1.9258 1.0117 2.9492 1.4336 1.0078 0.41797 2.0312 0.77344 3.0703 1.0625 0.32422 0.082031 0.60156 0.32422 0.70703 0.66797l2.2695 7.3125h1.3008zm36.793-34.898v10.891h-9.3594l0.003907-10.891zm9.8906 0v29.137h-29.137v-29.137h7.9023v11.883c0 0.55078 0.44531 0.99219 0.99219 0.99219h11.348c0.54688 0 0.99219-0.44531 0.99219-0.99219v-11.883zm0.99219 31.121h-4.6797v10.891h9.3594v-10.891zm6.6641 0h7.9023v29.137h-29.133v-29.137h7.9023v11.887c0 0.55078 0.44531 0.99219 0.99219 0.99219h11.344c0.55078 0 0.99219-0.44531 0.99219-0.99219zm-33.105 0v10.891h-9.3594v-10.891zm-10.355-1.9844h-9.8867c-0.55078 0-0.99219 0.44531-0.99219 0.99219v2.7539c-3.4727-0.67969-6.5352-2.4922-8.7891-5.0391-2.4609-2.7812-3.9531-6.4414-3.9531-10.453 0-4.3594 1.7695-8.3086 4.625-11.164s6.8047-4.6211 11.164-4.6211c2.5625 0 4.9727 0.60547 7.1055 1.6836 2.1211 1.0703 3.9688 2.6055 5.4062 4.4688v21.383zm20.242 31.121h-29.137v-29.137h7.9023v11.887c0 0.55078 0.44531 0.99219 0.99219 0.99219h11.344c0.55078 0 0.99219-0.44531 0.99219-0.99219l0.003907-11.887h7.9023z" fill-rule="evenodd"/>
<text x="0.0" y="117.5" font-size="5.0" font-weight="bold" font-family="Arbeit Regular, Helvetica, Arial-Unicode, Arial, Sans-serif" fill="#000000">Created by Najwa Isyfalana</text><text x="0.0" y="122.5" font-size="5.0" font-weight="bold" font-family="Arbeit Regular, Helvetica, Arial-Unicode, Arial, Sans-serif" fill="#000000">from Noun Project</text></svg>