<svg xmlns="http://www.w3.org/2000/svg" xmlns:xlink="http://www.w3.org/1999/xlink" version="1.1" x="0px" y="0px" viewBox="0 0 96 120" style="enable-background:new 0 0 96 96;" xml:space="preserve"><style type="text/css">
	.st0{fill-rule:evenodd;clip-rule:evenodd;}
</style><path class="st0" d="M48.641,60.17v7.342c0,0.208,0.103,0.386,0.283,0.49l5.746,3.317c0.378,0.219,0.849-0.053,0.849-0.49v-9.803  l23.715-13.692l7.476,4.316c0.6,0.346,0.943,0.941,0.943,1.634v25.206c0,0.693-0.343,1.287-0.943,1.634L64.88,92.726  c-0.6,0.346-1.286,0.346-1.886,0L41.165,80.123c-0.6-0.346-0.943-0.941-0.943-1.634v-22.81l6.736,3.889  C47.49,59.875,48.06,60.076,48.641,60.17L48.641,60.17z M50.353,3.274c-0.6-0.346-1.286-0.346-1.886,0L26.637,15.877  c-0.6,0.346-0.943,0.941-0.943,1.634v25.206c0,0.693,0.343,1.287,0.943,1.634l21.829,12.603c0.6,0.346,1.286,0.346,1.886,0  l21.829-12.603c0.6-0.346,0.943-0.941,0.943-1.634V17.511c0-0.693-0.343-1.287-0.943-1.634l-7.476-4.316L40.991,25.253v9.803  c0,0.437-0.47,0.709-0.849,0.49l-5.746-3.317c-0.18-0.104-0.283-0.282-0.283-0.49V21.283L57.828,7.59L50.353,3.274L50.353,3.274z   M22.676,35.239l-5.91,3.412v10.457c0,0.208,0.103,0.386,0.283,0.49l5.746,3.317c0.378,0.219,0.849-0.053,0.849-0.49v-6.773  c0.391,0.522,0.892,0.97,1.485,1.312l12.076,6.972v17.963l-4.198,2.424c-0.6,0.346-1.286,0.346-1.886,0L9.29,61.72  c-0.6-0.346-0.943-0.941-0.943-1.634V34.88c0-0.693,0.343-1.287,0.943-1.634l13.386-7.728V35.239z" fill="#FFFFFF"/></svg>
